<svg width="2926" height="1629" viewBox="0 0 2926 1629" fill="none" xmlns="http://www.w3.org/2000/svg">
<path d="M199 1629V1459H282.5V1629H199Z" fill="black"/>
<path d="M617 1629V1459H706V1629H617Z" fill="black"/>
<path d="M1047.5 1629V1459H1134V1629H1047.5Z" fill="black"/>
<path d="M199 169.5V0H282.5V169.5H199Z" fill="black"/>
<path d="M615 169.5V0H701V169.5H615Z" fill="black"/>
<path d="M1047.5 169.5V0H1129V169.5H1047.5Z" fill="black"/>
<rect y="213" width="1349" height="1207" rx="134" fill="black"/>
<path d="M428.3 1229.1C368.167 1229.1 319.4 1213.33 282 1181.8C244.6 1149.53 225.9 1104.8 225.9 1047.6C225.9 986 249.367 939.067 296.3 906.8C330.033 883.333 378.067 865.733 440.4 854L624.1 819.9C622.633 781.767 612.733 752.8 594.4 733C576.067 713.2 548.567 703.3 511.9 703.3C483.3 703.3 458 711.733 436 728.6C414.733 745.467 401.533 768.2 396.4 796.8H249C259.267 728.6 289.333 676.533 339.2 640.6C389.067 604.667 447 586.7 513 586.7C550.4 586.7 585.233 592.2 617.5 603.2C649.767 613.467 677.267 628.867 700 649.4C722.733 669.2 739.233 692.3 749.5 718.7C759.767 745.1 766 771.5 768.2 797.9C771.133 824.3 772.6 856.933 772.6 895.8V1217H624.1V1133.4C608.7 1160.53 590 1181.07 568 1195C533.533 1217.73 486.967 1229.1 428.3 1229.1ZM464.6 1112.5C493.933 1112.5 520.333 1106.63 543.8 1094.9C574.6 1079.5 595.867 1058.97 607.6 1033.3C619.333 1007.63 625.933 972.8 627.4 928.8L480 958.5C440.4 965.833 411.8 977.567 394.2 993.7C381 1006.9 374.4 1023.03 374.4 1042.1C374.4 1064.83 382.467 1082.43 398.6 1094.9C415.467 1106.63 437.467 1112.5 464.6 1112.5ZM1082.51 578.328V1217H913.176V578.328H1082.51ZM1082.51 348.055V502.156H913.176V348.055H1082.51Z" fill="white"/>
<path d="M1555.45 485.15H1701V1217H1555.45V485.15ZM1778.71 850.05C1780.76 815.883 1789.3 787.525 1804.33 764.975C1819.37 742.425 1838.5 724.317 1861.73 710.65C1884.97 696.983 1910.93 687.417 1939.63 681.95C1969.02 675.8 1998.4 672.725 2027.78 672.725C2054.43 672.725 2081.42 674.775 2108.76 678.875C2136.09 682.292 2161.03 689.467 2183.58 700.4C2206.13 711.333 2224.58 726.708 2238.93 746.525C2253.28 765.658 2260.46 791.283 2260.46 823.4V1099.12C2260.46 1123.04 2261.82 1145.93 2264.56 1167.8C2267.29 1189.67 2272.07 1206.07 2278.91 1217H2131.31C2128.57 1208.8 2126.18 1200.6 2124.13 1192.4C2122.77 1183.52 2121.74 1174.63 2121.06 1165.75C2097.82 1189.67 2070.49 1206.41 2039.06 1215.97C2007.62 1225.54 1975.51 1230.33 1942.71 1230.33C1917.42 1230.33 1893.85 1227.25 1871.98 1221.1C1850.12 1214.95 1830.98 1205.38 1814.58 1192.4C1798.18 1179.42 1785.2 1163.02 1775.63 1143.2C1766.75 1123.38 1762.31 1099.81 1762.31 1072.47C1762.31 1042.41 1767.43 1017.81 1777.68 998.675C1788.62 978.858 1802.28 963.142 1818.68 951.525C1835.77 939.908 1854.9 931.367 1876.08 925.9C1897.95 919.75 1919.82 914.967 1941.68 911.55C1963.55 908.133 1985.07 905.4 2006.26 903.35C2027.44 901.3 2046.23 898.225 2062.63 894.125C2079.03 890.025 2092.02 884.217 2101.58 876.7C2111.15 868.5 2115.59 856.883 2114.91 841.85C2114.91 826.133 2112.17 813.833 2106.71 804.95C2101.92 795.383 2095.09 788.208 2086.21 783.425C2078.01 777.958 2068.1 774.542 2056.48 773.175C2045.55 771.125 2033.59 770.1 2020.61 770.1C1991.91 770.1 1969.36 776.25 1952.96 788.55C1936.56 800.85 1926.99 821.35 1924.26 850.05H1778.71ZM2114.91 957.675C2108.76 963.142 2100.9 967.583 2091.33 971C2082.45 973.733 2072.54 976.125 2061.61 978.175C2051.36 980.225 2040.42 981.933 2028.81 983.3C2017.19 984.667 2005.57 986.375 1993.96 988.425C1983.02 990.475 1972.09 993.208 1961.16 996.625C1950.91 1000.04 1941.68 1004.82 1933.48 1010.97C1925.97 1016.44 1919.82 1023.62 1915.03 1032.5C1910.25 1041.38 1907.86 1052.66 1907.86 1066.33C1907.86 1079.31 1910.25 1090.24 1915.03 1099.12C1919.82 1108.01 1926.31 1115.18 1934.51 1120.65C1942.71 1125.43 1952.27 1128.85 1963.21 1130.9C1974.14 1132.95 1985.42 1133.97 1997.03 1133.97C2025.73 1133.97 2047.94 1129.19 2063.66 1119.62C2079.37 1110.06 2090.99 1098.78 2098.51 1085.8C2106.02 1072.13 2110.47 1058.47 2111.83 1044.8C2113.88 1031.13 2114.91 1020.2 2114.91 1012V957.675ZM2731.16 952.55C2731.16 930 2728.77 908.475 2723.98 887.975C2719.2 867.475 2711.68 849.367 2701.43 833.65C2691.18 817.933 2678.2 805.633 2662.48 796.75C2647.45 787.183 2629 782.4 2607.13 782.4C2585.95 782.4 2567.5 787.183 2551.78 796.75C2536.07 805.633 2523.08 817.933 2512.83 833.65C2502.58 849.367 2495.07 867.475 2490.28 887.975C2485.5 908.475 2483.11 930 2483.11 952.55C2483.11 974.417 2485.5 995.6 2490.28 1016.1C2495.07 1036.6 2502.58 1054.71 2512.83 1070.42C2523.08 1086.14 2536.07 1098.78 2551.78 1108.35C2567.5 1117.23 2585.95 1121.67 2607.13 1121.67C2629 1121.67 2647.45 1117.23 2662.48 1108.35C2678.2 1098.78 2691.18 1086.14 2701.43 1070.42C2711.68 1054.71 2719.2 1036.6 2723.98 1016.1C2728.77 995.6 2731.16 974.417 2731.16 952.55ZM2342.68 485.15H2488.23V751.65H2490.28C2508.05 724.317 2531.97 704.5 2562.03 692.2C2592.78 679.217 2624.56 672.725 2657.36 672.725C2684.01 672.725 2710.32 678.192 2736.28 689.125C2762.25 700.058 2785.48 716.8 2805.98 739.35C2827.17 761.9 2844.25 790.942 2857.23 826.475C2870.22 861.325 2876.71 903.008 2876.71 951.525C2876.71 1000.04 2870.22 1042.07 2857.23 1077.6C2844.25 1112.45 2827.17 1141.15 2805.98 1163.7C2785.48 1186.25 2762.25 1202.99 2736.28 1213.92C2710.32 1224.86 2684.01 1230.33 2657.36 1230.33C2618.41 1230.33 2583.56 1224.18 2552.81 1211.87C2522.06 1199.57 2498.82 1178.73 2483.11 1149.35H2481.06V1217H2342.68V485.15Z" fill="black"/>
</svg>
