<svg xmlns="http://www.w3.org/2000/svg" viewBox="0 0 32 32" fill="white">
  <path d="M16.01 3C9.38 3 4 8.38 4 15.01c0 2.64.86 5.08 2.32 7.05L4 29l7.15-2.29a11.93 11.93 0 004.86 1.02h.01c6.63 0 12.01-5.38 12.01-12.01C28.02 8.38 22.64 3 16.01 3zm6.98 17.46c-.29.82-1.43 1.5-2.32 1.69-.61.13-1.4.23-4.55-.98-4.04-1.56-6.64-5.72-6.85-6.02-.21-.3-1.64-2.18-1.64-4.16s1.04-2.95 1.41-3.36c.37-.41.81-.51 1.08-.51h.78c.25 0 .58-.09.91.69.33.78 1.13 2.75 1.23 2.95.1.2.17.43.03.69-.14.26-.21.43-.42.66-.21.23-.44.52-.63.69-.21.21-.43.43-.18.86.25.43 1.12 1.84 2.41 2.98 1.66 1.48 3.06 1.94 3.49 2.16.43.21.69.18.95-.11.26-.29 1.09-1.27 1.38-1.71.29-.43.58-.36.98-.21.4.14 2.52 1.19 2.95 1.41.43.21.72.32.83.5.11.18.11 1.02-.18 1.84z"></path>
</svg>
